<?xml version="1.0" encoding="UTF-8" standalone="no"?>
<!DOCTYPE svg PUBLIC "-//W3C//DTD SVG 1.1//EN" "http://www.w3.org/Graphics/SVG/1.1/DTD/svg11.dtd">
<svg width="100%" height="100%" viewBox="0 0 260 260" version="1.1" xmlns="http://www.w3.org/2000/svg" xmlns:xlink="http://www.w3.org/1999/xlink" xml:space="preserve" xmlns:serif="http://www.serif.com/" style="fill-rule:evenodd;clip-rule:evenodd;stroke-linejoin:round;stroke-miterlimit:1.41421;">
    <g transform="matrix(0.44695,3.30545e-32,1.65272e-32,0.44695,-45.2184,6.90015)">
        <g id="logo">
            <g id="Logo">
                <g transform="matrix(3.85352,0,0,3.85352,26.1911,-2.81236)">
                    <path d="M154.3,68.163C151.67,55.973 144.357,47.197 134.643,40.243C127.043,34.803 119.467,29.193 110.5,26.147C106.983,24.95 103.027,24.86 99.323,24.677C96.13,24.517 93.257,23.463 90.13,23.163C87.43,22.903 84.567,23.823 81.89,24.093C79.217,24.367 76.543,24.863 74.01,25.913C66.887,28.857 59.137,31.34 54.073,37.12C50.077,41.683 45.507,46.02 42.237,51.247C39.263,56.007 37.653,61.777 36.04,67.05C35.377,69.213 34.48,71.353 33.837,73.52C33.01,76.31 33.307,78.953 33.433,81.813C33.82,90.86 35.033,99.46 38.06,108.01C38.943,110.507 39.397,113.183 40.623,115.533C41.733,117.653 42.963,119.473 44.3,121.407C46.723,124.923 49.87,126.847 53.573,128.937C55.43,129.987 57.523,130.42 59.323,131.647C60.797,132.65 62.053,133.807 63.587,134.803C66.713,136.833 69.33,138.393 72.997,139.353C75.397,139.983 77.82,141.04 80.257,141.473C82.257,141.83 84.52,141.503 86.483,141.787C88.163,142.03 89.617,142.99 91.267,143.077C93.07,143.173 100.71,141.41 102.427,141.01C105.3,140.343 108.243,139.27 111.123,138.443C113.297,137.823 115.273,137.683 117.3,136.787C118.92,136.073 120.18,135.09 121.753,134.49C125.573,133.03 129.497,131.577 132.89,129.323C142.483,122.95 149.837,112.937 153.563,102.13C155.63,96.137 156.58,90.343 156.637,83.997C156.69,78.51 155.447,73.477 154.3,68.163Z" style="fill:rgb(255,218,0);stroke:black;stroke-width:0.78px;"/>
                </g>
                <g transform="matrix(3.85352,0,0,3.85352,26.1911,-1.81236)">
                    <path d="M149.147,88.26C148.667,90.713 147.84,93.147 147.43,95.697C147.047,98.087 146.663,100.347 145.613,102.563C143.417,107.213 139.297,110.98 136.58,115.307C135.22,117.473 133.82,119.877 132.107,121.753C130.7,123.297 128.46,124.233 126.65,125.3C121.943,128.077 117.803,129.583 112.287,130.727C108.177,131.58 104.617,133.05 100.75,134.42C98.503,135.217 96.33,135.71 93.92,135.717C93.92,135.717 86.28,135.573 83.297,135.14C79.123,134.53 76.16,132.723 72.247,131.39C69.287,130.377 65.547,129.843 63.127,127.6C61.673,126.26 60.817,124.537 59.12,123.367C57.67,122.367 56.263,121.607 54.963,120.347C49.733,115.297 46.417,107.84 44.337,100.917C41.713,92.2 40.573,83.823 40.573,74.503C40.573,65.17 46.057,56.57 51.19,49.087C52.8,46.737 54.217,44.11 56.05,41.987C57.693,40.083 60.103,38.91 62.343,37.673C66.677,35.28 70.513,33.593 75.32,32.617C84.07,30.84 93.607,28.797 102.52,31.103C107.717,32.447 112.69,34.58 117.473,36.937C121.847,39.093 126.427,40.49 130.177,43.61C134.477,47.187 136.95,51.363 139.973,55.907C143.067,60.553 145.607,65.82 147.267,71.113C148.16,73.96 148.283,76.77 148.68,79.687C149.033,82.307 149.67,85.577 149.147,88.26Z" style="fill:rgb(254,254,254);stroke:black;stroke-width:0.78px;"/>
                </g>
                <g id="InnerLetters">
                    <g transform="matrix(3.85352,0,0,3.85352,26.1911,-1.81236)">
                        <path d="M135.753,87.137L135.963,87.403L135.963,87.527C135.963,87.587 135.843,87.703 135.607,87.867L134.897,87.867C133.637,87.867 132.78,88.333 132.33,89.277C131.953,90.303 131.76,91.457 131.76,92.727C131.76,93.513 132.093,94.783 132.757,96.537C133,97.013 134.277,98.3 136.603,100.403C137.793,102.11 138.383,103.793 138.383,105.46C138.383,106.77 138.097,108.06 137.533,109.317C137.27,109.913 136.553,110.423 135.393,110.85C134.98,111.073 134.647,111.19 134.397,111.19C134.147,111.19 133.983,111.097 133.9,110.923L133.9,110.727C133.9,110.593 134.16,110.51 134.683,110.46C136.25,109.863 137.033,109.243 137.033,108.587C137.46,107.737 137.673,106.627 137.673,105.26C137.673,103.467 136.863,101.71 135.253,99.99C133.983,99.03 133.03,98.1 132.403,97.193C131.98,96.733 131.547,95.51 131.123,93.53C131.123,93.293 131.097,92.983 131.05,92.6C131.05,91.08 131.333,89.733 131.907,88.54C132.557,87.607 133.837,87.137 135.753,87.137Z" style="fill-rule:nonzero;"/>
                    </g>
                    <g transform="matrix(3.85352,0,0,3.85352,26.1911,-1.81236)">
                        <path d="M124.427,86.907L124.637,86.907L124.923,87.193C124.833,87.713 124.783,88.303 124.783,88.973C124.783,90.183 125.307,94.643 126.35,102.36L126.99,109.62C126.917,109.86 126.753,109.98 126.49,109.98C126.253,109.98 125.803,108.29 125.143,104.923C124.71,103.38 123.877,100.033 122.643,94.88C121.933,92.837 121.41,91.04 121.083,89.47L121.01,89.47L121.083,90.32C121.083,91.277 120.987,94.167 120.797,99.01C120.89,103.37 121.083,107.283 121.363,110.763L121.363,110.903C121.297,111.093 121.127,111.19 120.863,111.19L120.583,110.977L120.65,110.333C120.367,107.24 120.177,103.483 120.08,99.083C120.273,94.357 120.367,91.513 120.367,90.54C120.367,90.31 120.34,89.77 120.3,88.9C120.34,88.803 120.367,88.737 120.367,88.687C120.323,88.5 120.3,88.303 120.3,88.117C120.3,87.357 120.413,86.98 120.65,86.98C121.09,86.98 121.447,87.763 121.72,89.327C123.337,94.667 124.57,99.347 125.423,103.357C125.707,104.4 125.853,104.973 125.853,105.063L125.92,105.063C125.683,102.773 125.143,98.313 124.287,91.677C124.19,91.013 124.12,90.083 124.073,88.9C124.12,87.987 124.14,87.393 124.14,87.12L124.427,86.907Z" style="fill-rule:nonzero;"/>
                    </g>
                    <g transform="matrix(3.85352,0,0,3.85352,26.1911,-1.81236)">
                        <path d="M108.693,86.887L108.76,86.887C109.44,87.197 110.01,88.03 110.487,89.397C111.803,93.48 112.777,98.697 113.407,105.047C113.82,107.11 114.027,108.923 114.027,110.477C113.973,110.63 113.81,110.71 113.547,110.71C113.36,110.34 113.073,108.453 112.697,105.047C112.587,104.68 112.35,103.107 111.987,100.33L111.433,100.257C108.87,100.493 107.587,100.757 107.587,101.04L107.587,103.8L107.107,110.407C107.21,110.57 107.263,110.727 107.263,110.867C107.263,110.953 107.16,111.06 106.943,111.19C106.53,111.19 106.323,110.927 106.323,110.407C106.687,105.397 106.877,102.383 106.877,101.363C106.827,100.707 106.803,100.05 106.803,99.387C106.827,95.967 107.113,92.35 107.66,88.54C107.883,87.44 108.223,86.887 108.693,86.887Z" style="fill-rule:nonzero;"/>
                    </g>
                    <g transform="matrix(3.85352,0,0,3.85352,26.1911,-1.81236)">
                        <path d="M99.93,87.137L100.143,87.403L100.143,87.527C100.143,87.587 100.02,87.703 99.783,87.867L99.073,87.867C97.817,87.867 96.957,88.333 96.51,89.277C96.133,90.303 95.937,91.457 95.937,92.727C95.937,93.513 96.27,94.783 96.933,96.537C97.177,97.013 98.453,98.3 100.78,100.403C101.97,102.11 102.56,103.793 102.56,105.46C102.56,106.77 102.277,108.06 101.71,109.317C101.45,109.913 100.733,110.423 99.57,110.85C99.157,111.073 98.823,111.19 98.573,111.19C98.327,111.19 98.16,111.097 98.077,110.923L98.077,110.727C98.077,110.593 98.337,110.51 98.86,110.46C100.427,109.863 101.213,109.243 101.213,108.587C101.637,107.737 101.85,106.627 101.85,105.26C101.85,103.467 101.043,101.71 99.43,99.99C98.16,99.03 97.207,98.1 96.58,97.193C96.157,96.733 95.723,95.51 95.3,93.53C95.3,93.293 95.273,92.983 95.227,92.6C95.227,91.08 95.513,89.733 96.083,88.54C96.733,87.607 98.017,87.137 99.93,87.137Z" style="fill-rule:nonzero;"/>
                    </g>
                    <g transform="matrix(3.85352,0,0,3.85352,26.1911,-1.81236)">
                        <path d="M90.013,86.98L90.153,86.98C90.487,86.98 90.657,88.237 90.657,90.753L90.657,91.677C90.657,92.6 90.51,95 90.227,98.87C90.227,99.06 90.25,99.25 90.297,99.437C90.25,101.923 90.227,103.89 90.227,105.35L90.227,109.98C90.227,110.07 90.273,110.307 90.37,110.69C90.31,111.027 90.213,111.19 90.087,111.19L89.8,111.19C89.61,111.19 89.513,110.55 89.513,109.27C89.513,101.03 89.653,95.36 89.94,92.247L89.94,90.253C89.94,89.15 89.873,88.153 89.727,87.26C89.727,87.193 89.823,87.093 90.013,86.98Z" style="fill-rule:nonzero;"/>
                    </g>
                    <g transform="matrix(3.85352,0,0,3.85352,26.1911,-1.81236)">
                        <path d="M84.257,88.013L84.477,88.26L84.477,88.437C84.477,88.637 83.807,88.743 82.477,88.743L80.483,88.743C80.417,88.743 80.343,88.82 80.27,88.99L80.417,92.247C80.37,92.547 80.343,92.71 80.343,92.747C80.77,99.923 80.983,105.07 80.983,108.18C81.03,108.267 81.057,108.327 81.057,108.377C81.007,108.45 80.983,108.51 80.983,108.553L81.057,108.983C80.983,109.147 80.917,109.233 80.843,109.233L80.557,109.233C80.51,109.233 80.417,109.147 80.27,108.983C80.27,108.9 80.297,108.673 80.343,108.303C80.343,107.283 80.133,102.16 79.7,92.923C79.7,91.417 79.657,90.043 79.56,88.81L79.42,88.743L79.203,88.743L76.923,88.937C76.783,88.777 76.71,88.597 76.71,88.383C76.71,88.31 76.807,88.23 76.997,88.133C77.33,88.22 77.52,88.26 77.567,88.26C78.48,88.177 79.123,88.133 79.487,88.133L82.41,88.133C83.013,88.133 83.633,88.09 84.257,88.013Z" style="fill-rule:nonzero;"/>
                    </g>
                    <g transform="matrix(3.85352,0,0,3.85352,26.1911,-1.81236)">
                        <path d="M67.133,84.913L67.28,84.913C67.407,85.077 67.833,85.223 68.56,85.34C69.46,85.71 70.197,86.373 70.767,87.333C71.577,89.29 71.977,90.74 71.977,91.677L71.977,92.387C71.977,95.5 71.077,97.753 69.273,99.157C71.363,99.657 72.573,102.123 72.9,106.56L72.9,109.27C72.9,109.67 72.923,110.267 72.973,111.05L72.76,111.19L72.547,111.19L72.263,110.977C72.213,110.03 72.19,109.31 72.19,108.837L72.19,106.273C72.19,104.493 71.643,102.67 70.553,100.793C69.793,100.08 69.127,99.723 68.56,99.723L68.49,99.723C68.537,100.743 68.56,101.503 68.56,102L68.56,104.71C68.653,107.057 68.7,108.387 68.7,108.697L68.7,108.837C68.603,109.033 68.463,109.123 68.277,109.123C68.203,109.123 68.08,109.033 67.917,108.837L67.99,108.34C67.893,106.333 67.843,105.003 67.843,104.353L67.843,100.08C67.643,100.08 67.503,99.983 67.42,99.797L67.42,99.583C67.517,99.393 67.63,99.297 67.777,99.297C67.54,92.783 67.23,88.053 66.847,85.127L67.133,84.913Z" style="fill-rule:nonzero;"/>
                    </g>
                    <g transform="matrix(3.85352,0,0,3.85352,26.1911,-1.81236)">
                        <path d="M56.19,86.887L56.257,86.887C56.937,87.197 57.507,88.03 57.983,89.397C59.3,93.48 60.273,98.697 60.903,105.047C61.317,107.11 61.523,108.923 61.523,110.477C61.47,110.63 61.307,110.71 61.043,110.71C60.857,110.34 60.57,108.453 60.193,105.047C60.083,104.68 59.847,103.107 59.483,100.33L58.93,100.257C56.367,100.493 55.083,100.757 55.083,101.04L55.083,103.8L54.603,110.407C54.707,110.57 54.76,110.727 54.76,110.867C54.76,110.953 54.657,111.06 54.44,111.19C54.027,111.19 53.82,110.927 53.82,110.407C54.183,105.397 54.373,102.383 54.373,101.363C54.323,100.707 54.3,100.05 54.3,99.387C54.323,95.967 54.61,92.35 55.157,88.54C55.38,87.44 55.72,86.887 56.19,86.887Z" style="fill-rule:nonzero;"/>
                    </g>
                    <g transform="matrix(3.85352,0,0,3.85352,26.1911,-1.81236)">
                        <path d="M108.76,42.69L109.19,42.69C109.417,42.927 109.98,43.187 110.9,43.467C112.247,44.313 113.2,45.497 113.75,47.03C114.223,48.62 114.46,49.88 114.46,50.807L114.46,52.94C114.46,53.13 114.483,53.323 114.527,53.513C114.21,58.197 113.78,61.12 113.25,62.27C113.25,62.793 112.747,64.05 111.75,66.043C111.137,66.947 110.753,67.397 110.613,67.397C110.28,67.323 110.113,67.233 110.113,67.113L110.113,66.827C110.35,66.463 110.467,66.127 110.467,65.83C110.377,65.64 110.327,65.497 110.327,65.403C110.377,65.26 110.423,65.193 110.467,65.193C110.423,64.573 110.4,64.073 110.4,63.697C110.4,51.92 109.757,45.06 108.473,43.113L108.473,42.97C108.473,42.903 108.57,42.807 108.76,42.69Z" style="fill-rule:nonzero;"/>
                    </g>
                    <g transform="matrix(3.85352,0,0,3.85352,26.1911,-1.81236)">
                        <path d="M100.63,44.113L101.193,44.113C101.553,44.113 101.977,44.897 102.477,46.463C102.95,49.977 103.193,53.487 103.193,57C103.193,62.483 102.86,65.74 102.19,66.76C101.827,67.187 101.49,67.397 101.193,67.397L100.913,67.397C99.62,67.397 98.787,65.333 98.417,61.2C98.327,59.627 98.23,57.37 98.13,54.437L98.13,53.087C98.13,50.187 98.587,47.623 99.487,45.393C99.437,45.31 99.413,45.217 99.413,45.107L100.63,44.113Z" style="fill-rule:nonzero;"/>
                    </g>
                    <g transform="matrix(3.85352,0,0,3.85352,26.1911,-1.81236)">
                        <path d="M89.557,44.113L90.123,44.113C90.48,44.113 90.907,44.897 91.403,46.463C91.877,49.977 92.12,53.487 92.12,57C92.12,62.483 91.787,65.74 91.12,66.76C90.753,67.187 90.42,67.397 90.123,67.397L89.843,67.397C88.547,67.397 87.717,65.333 87.343,61.2C87.253,59.627 87.157,57.37 87.06,54.437L87.06,53.087C87.06,50.187 87.513,47.623 88.413,45.393C88.367,45.31 88.34,45.217 88.34,45.107L89.557,44.113Z" style="fill-rule:nonzero;"/>
                    </g>
                    <g transform="matrix(3.85352,0,0,3.85352,26.1911,-1.81236)">
                        <path d="M77.623,42.12C77.72,42.12 78.053,42.283 78.62,42.617C80.61,42.793 81.613,42.963 81.613,43.113C81.657,43.2 81.68,43.29 81.68,43.4C81.68,43.467 81.59,43.563 81.397,43.687C79.81,43.493 78.69,43.327 78.053,43.187C78.143,43.873 78.193,44.277 78.193,44.397C78.193,44.707 78.17,45.18 78.12,45.82C78.267,49.263 78.333,52.207 78.333,54.65L78.333,54.933C78.38,55.08 78.527,55.147 78.763,55.147L80.4,55.147C80.57,55.147 80.783,55.123 81.043,55.08C81.23,55.147 81.33,55.22 81.33,55.293L81.33,55.58C81.33,55.72 81.117,55.817 80.683,55.863C80.593,55.863 80.547,55.84 80.547,55.79L80.047,55.863L78.837,55.863L78.333,55.79C78.38,60.15 78.407,63.113 78.407,64.693C78.407,65.12 78.43,65.953 78.48,67.187L78.12,67.397L77.767,67.187L77.623,57.783C77.67,57.523 77.693,57.31 77.693,57.14C77.647,56.727 77.623,56.467 77.623,56.363C77.623,55.99 77.647,55.33 77.693,54.363C77.557,49.503 77.457,46.7 77.41,45.963C77.457,45.62 77.483,45.17 77.483,44.61C77.483,44.04 77.383,43.45 77.197,42.83C77.323,42.417 77.47,42.18 77.623,42.12Z" style="fill-rule:nonzero;"/>
                    </g>
                </g>
                <g id="Leaf">
                    <g transform="matrix(3.85352,0,0,3.85352,26.1911,-1.81236)">
                        <path d="M75.61,15.87L75.45,16.407C71.427,26.38 50.603,24.093 41.807,24.623C38.667,24.813 36.247,25.94 33.747,27.587C31.78,20.023 36.667,13.647 42.757,9.827C49.63,5.517 62.227,3.687 69.553,7.757C73.2,9.78 74.833,11.427 75.61,15.87Z" style="fill:rgb(135,166,20);fill-rule:nonzero;stroke:black;stroke-width:0.78px;"/>
                    </g>
                    <g transform="matrix(3.85352,0,0,3.85352,26.1911,-1.81236)">
                        <path d="M84.74,19.003C70.633,13.39 56.703,9.647 42.48,17.773C39.413,19.523 35.803,22.067 33.747,27.587" style="fill:none;stroke:black;stroke-width:0.82px;stroke-linejoin:miter;"/>
                    </g>
                    <g transform="matrix(3.85352,0,0,3.85352,26.1911,-1.81236)">
                        <path d="M73.967,15.06C71.727,17.657 68.8,20.7 66.52,22.8" style="fill:none;stroke:black;stroke-width:0.82px;stroke-linejoin:miter;"/>
                    </g>
                    <g transform="matrix(3.85352,0,0,3.85352,26.1911,-1.81236)">
                        <path d="M69.223,14.483C67.48,17.447 64.147,21.84 62.137,23.39" style="fill:none;stroke:black;stroke-width:0.82px;stroke-linejoin:miter;"/>
                    </g>
                    <g transform="matrix(3.85352,0,0,3.85352,26.1911,-1.81236)">
                        <path d="M66.023,13.49C62.937,17.297 59.453,21.493 55.16,24.003" style="fill:none;stroke:black;stroke-width:0.82px;stroke-linejoin:miter;"/>
                    </g>
                    <g transform="matrix(3.85352,0,0,3.85352,26.1911,-1.81236)">
                        <path d="M60.623,13.063C57.17,16.97 53.867,21.31 49.703,24.273" style="fill:none;stroke:black;stroke-width:0.82px;stroke-linejoin:miter;"/>
                    </g>
                    <g transform="matrix(3.85352,0,0,3.85352,26.1911,-1.81236)">
                        <path d="M54.167,14.427C51.16,18.153 47.56,22.157 43.377,24.217" style="fill:none;stroke:black;stroke-width:0.82px;stroke-linejoin:miter;"/>
                    </g>
                    <g transform="matrix(3.85352,0,0,3.85352,26.1911,-1.81236)">
                        <path d="M46.337,16.27C43.907,19.347 41.11,22.273 38.5,25.057" style="fill:none;stroke:black;stroke-width:0.82px;stroke-linejoin:miter;"/>
                    </g>
                    <g transform="matrix(3.85352,0,0,3.85352,26.1911,-1.81236)">
                        <path d="M73.62,14.93C71.523,11.797 68.24,8.27 64.507,6.377" style="fill:none;stroke:black;stroke-width:0.82px;stroke-linejoin:miter;"/>
                    </g>
                    <g transform="matrix(3.85352,0,0,3.85352,26.1911,-1.81236)">
                        <path d="M69.333,14.723C66.257,10.903 62.5,7.79 58.303,5.453" style="fill:none;stroke:black;stroke-width:0.82px;stroke-linejoin:miter;"/>
                    </g>
                    <g transform="matrix(3.85352,0,0,3.85352,26.1911,-1.81236)">
                        <path d="M64.673,13.383C60.957,10.313 56.58,7.577 51.733,6.577" style="fill:none;stroke:black;stroke-width:0.82px;stroke-linejoin:miter;"/>
                    </g>
                    <g transform="matrix(3.85352,0,0,3.85352,26.1911,-1.81236)">
                        <path d="M59.147,13.307C54.627,11.04 49.687,8.697 44.757,9.333" style="fill:none;stroke:black;stroke-width:0.82px;stroke-linejoin:miter;"/>
                    </g>
                    <g transform="matrix(3.85352,0,0,3.85352,26.1911,-1.81236)">
                        <path d="M54.297,14.077C50.04,11.977 44.897,11.51 40.32,11.65" style="fill:none;stroke:black;stroke-width:0.82px;stroke-linejoin:miter;"/>
                    </g>
                    <g transform="matrix(3.85352,0,0,3.85352,26.1911,-1.81236)">
                        <path d="M46.43,15.91C42.83,15.267 39.517,15.57 35.98,16.38" style="fill:none;stroke:black;stroke-width:0.82px;stroke-linejoin:miter;"/>
                    </g>
                </g>
                <g transform="matrix(3.85352,0,0,3.85352,26.1911,-1.81236)">
                    <path d="M87.73,2.13L87.907,2.33L87.907,2.473C87.907,2.633 87.367,2.72 86.287,2.72L84.677,2.72C84.62,2.72 84.563,2.783 84.503,2.92L84.62,5.557C84.583,5.797 84.563,5.93 84.563,5.96C84.907,11.763 85.08,15.93 85.08,18.447C85.117,18.517 85.137,18.563 85.137,18.603C85.1,18.663 85.08,18.71 85.08,18.747L85.137,19.097C85.08,19.227 85.023,19.297 84.967,19.297L84.733,19.297C84.697,19.297 84.62,19.227 84.503,19.097C84.503,19.027 84.523,18.843 84.563,18.543C84.563,17.72 84.39,13.573 84.04,6.1C84.04,4.88 84.007,3.77 83.93,2.773L83.817,2.72L83.637,2.72L81.793,2.877C81.683,2.747 81.623,2.6 81.623,2.43C81.623,2.37 81.7,2.307 81.853,2.227C82.123,2.297 82.277,2.33 82.317,2.33C83.053,2.26 83.573,2.227 83.87,2.227L86.233,2.227C86.72,2.227 87.223,2.193 87.73,2.13ZM94.2,2.04L94.317,2.04C94.46,2.04 94.573,2.27 94.66,2.733C94.62,3.663 94.603,4.377 94.603,4.863C94.603,8.49 94.793,12.063 95.177,15.58C95.37,18 95.567,19.65 95.757,20.537L95.757,20.59C95.757,20.65 95.697,20.707 95.58,20.767L95.41,20.767C95.103,20.767 94.853,19.17 94.66,15.983C94.47,14.207 94.37,13.093 94.37,12.64C94.337,12.64 94.317,12.62 94.317,12.58C93.603,12.62 93.087,12.64 92.76,12.64L92.183,12.64C92.103,14.973 92.07,16.53 92.07,17.307C92.07,18.3 92.103,19.43 92.183,20.707L91.953,20.88C91.68,20.88 91.55,20.707 91.55,20.363C91.55,19.95 91.53,18.833 91.49,17.02C91.607,12.98 91.76,9.307 91.953,6.017L91.953,5.84C91.953,5.603 91.933,5.313 91.893,4.98C91.933,4.823 91.953,4.69 91.953,4.577L91.893,3.997C91.933,3.633 91.953,3.27 91.953,2.907C91.953,2.857 91.933,2.663 91.893,2.33L92.123,2.153L92.297,2.153C92.413,2.153 92.493,2.363 92.527,2.787C92.493,3.46 92.473,3.883 92.473,4.057C92.473,4.517 92.493,5.403 92.527,6.707C92.337,9.413 92.243,11.2 92.243,12.063L93.107,12.063C93.353,12.063 93.737,12.043 94.257,12.007L94.257,11.773C94.107,9.867 94.027,7.54 94.027,4.803C94.027,4.487 94.047,3.797 94.087,2.733C94.007,2.547 93.967,2.373 93.967,2.213L94.2,2.04ZM100.753,0.83C101.147,0.983 101.587,1.06 102.08,1.06C102.847,1.023 103.367,1.003 103.633,1.003L103.75,1.173L103.75,1.407C103.75,1.463 103.693,1.52 103.58,1.577C103.367,1.577 102.827,1.597 101.963,1.637L101.273,1.577C101.387,2.32 101.447,3.373 101.447,4.75C101.213,8.097 101.1,10.077 101.1,10.683C101.1,10.777 101.907,10.893 103.52,11.027L103.693,11.257L103.693,11.37C103.673,11.45 103.58,11.53 103.403,11.603C102.797,11.49 102.01,11.43 101.043,11.43C100.81,15.177 100.697,17.747 100.697,19.15L100.697,20.187C100.707,20.267 100.743,20.303 100.81,20.303L100.87,20.303L103.06,20.073L103.06,20.133L103.17,20.073L103.403,20.073C103.46,20.073 103.54,20.153 103.633,20.303L103.633,20.417C103.633,20.477 103.56,20.557 103.403,20.65L102.827,20.65L101.043,20.88C100.963,20.84 100.91,20.82 100.87,20.82L100.753,20.88C100.36,20.88 100.147,20.65 100.117,20.187L100.117,19.207C100.117,17.597 100.37,12.777 100.87,4.75L100.87,4.517C100.87,2.733 100.753,1.577 100.52,1.06C100.52,1.003 100.6,0.923 100.753,0.83Z" style="fill:rgb(44,45,44);fill-rule:nonzero;"/>
                </g>
            </g>
        </g>
    </g>
</svg>
